<?xml version="1.0" standalone="no"?>
<!DOCTYPE svg PUBLIC "-//W3C//DTD SVG 20010904//EN"
 "http://www.w3.org/TR/2001/REC-SVG-20010904/DTD/svg10.dtd">
<svg version="1.0" xmlns="http://www.w3.org/2000/svg"
 width="768.000000pt" height="297.000000pt" viewBox="0 0 768.000000 297.000000"
 preserveAspectRatio="xMidYMid meet">

<g transform="translate(0.000000,297.000000) scale(0.100000,-0.100000)"
fill="#000000" stroke="none">
<path d="M224 2541 c-22 -10 -57 -35 -77 -56 -71 -73 -68 -19 -65 -1021 l3
-901 30 -49 c19 -30 49 -60 79 -79 l49 -30 3566 -3 c2663 -2 3577 0 3608 9 56
15 116 68 145 127 l23 47 0 895 c0 799 -2 899 -16 930 -26 56 -70 101 -124
126 l-50 24 -3565 0 c-3450 0 -3566 -1 -3606 -19z m2392 -337 c44 -21 50 -31
29 -54 -17 -19 -18 -19 -43 0 -28 23 -85 26 -122 7 -13 -7 -35 -28 -47 -46
-83 -123 84 -266 189 -161 46 46 38 60 -32 60 -58 0 -60 1 -60 25 l0 26 88 -3
87 -3 3 -30 c5 -50 -36 -117 -88 -142 -94 -48 -197 -14 -246 80 -31 58 -13
168 34 210 53 48 144 61 208 31z m349 -14 c0 -24 -2 -25 -77 -28 l-78 -3 0
-44 0 -45 70 0 c68 0 70 -1 70 -25 0 -24 -2 -25 -70 -25 l-70 0 0 -50 0 -50
80 0 c79 0 80 0 80 -25 l0 -25 -105 0 -105 0 0 175 0 176 103 -3 c101 -3 102
-3 102 -28z m275 0 c0 -29 -2 -30 -45 -30 l-45 0 0 -145 0 -145 -30 0 -30 0 0
145 0 145 -40 0 c-42 0 -58 15 -46 45 4 12 27 15 121 15 l115 0 0 -30z m218
-147 l2 -173 -30 0 -30 0 0 168 c0 93 3 172 7 176 4 4 16 6 28 4 19 -3 20 -11
23 -175z m282 147 c0 -29 -2 -30 -45 -30 l-45 0 0 -145 0 -145 -30 0 -30 0 0
145 0 145 -45 0 c-43 0 -45 1 -45 30 l0 30 120 0 120 0 0 -30z m389 16 c101
-53 132 -188 64 -275 -56 -70 -137 -89 -220 -52 -128 58 -133 247 -9 322 38
23 125 25 165 5z m290 -113 l76 -122 3 125 3 124 24 0 25 0 0 -175 0 -175 -27
0 c-25 0 -37 14 -102 121 -41 66 -77 122 -80 124 -3 2 -5 -53 -3 -121 l4 -124
-31 0 -31 0 0 176 0 175 32 -3 c29 -3 39 -14 107 -125z m-3261 -147 c246 -139
501 -284 567 -321 149 -84 165 -98 165 -145 0 -25 -7 -43 -22 -57 -25 -23
-288 -173 -304 -173 -5 0 -61 52 -124 115 l-115 115 -351 -351 c-324 -324
-353 -350 -363 -331 -8 15 -11 218 -11 685 0 657 0 665 21 691 41 52 53 48
537 -228z m1657 -311 c33 -9 84 -32 113 -52 l53 -36 -37 -38 -36 -37 -51 32
c-45 28 -58 31 -131 31 -91 0 -137 -17 -191 -70 -47 -48 -69 -101 -73 -181 -6
-114 42 -199 140 -248 60 -30 165 -36 221 -13 49 21 98 67 118 112 30 66 32
65 -101 65 l-120 0 0 55 0 55 173 -2 172 -3 3 -54 c4 -76 -28 -176 -74 -230
-183 -213 -549 -129 -634 145 -24 79 -25 120 -5 199 28 107 96 190 195 240 91
46 168 55 265 30z m1975 -371 l0 -355 -52 3 -53 3 -3 353 -2 352 55 0 55 0 0
-356z m1075 332 c85 -40 125 -103 125 -196 0 -65 -18 -108 -65 -153 -49 -47
-114 -67 -222 -67 l-82 0 -3 -132 -3 -133 -52 -3 -53 -3 0 355 0 356 153 0
c139 0 156 -2 202 -24z m293 -328 l-3 -353 -52 -3 -53 -3 0 355 0 356 55 0 55
0 -2 -352z m-2713 93 c58 -26 111 -90 130 -156 31 -105 -17 -220 -115 -275
-60 -33 -165 -35 -225 -3 -226 120 -145 454 109 453 37 0 77 -8 101 -19z m551
-16 c136 -85 152 -272 33 -379 -81 -73 -192 -85 -285 -31 -78 46 -115 112
-115 205 -1 98 51 181 136 222 63 29 167 22 231 -17z m484 7 c29 -22 30 -22
30 -2 0 17 6 20 50 20 l50 0 0 -249 c0 -272 -6 -309 -58 -365 -61 -64 -182
-86 -268 -47 -41 19 -117 97 -111 115 2 5 22 17 44 27 l42 18 26 -34 c33 -44
87 -60 140 -43 48 16 76 54 82 111 l5 46 -47 -25 c-83 -41 -161 -27 -236 43
-123 115 -97 313 51 390 59 31 154 29 200 -5z m701 -7 c44 -32 108 -131 93
-144 -5 -5 -78 -37 -163 -72 l-153 -63 36 -33 c53 -49 123 -46 182 9 22 20 22
20 63 -8 l42 -27 -28 -29 c-49 -52 -100 -72 -178 -72 -146 0 -235 93 -235 246
0 57 33 139 69 172 71 65 196 74 272 21z m1334 16 c50 -22 91 -69 105 -119 5
-20 10 -101 10 -179 l0 -143 -55 0 c-49 0 -55 2 -55 21 0 20 -1 20 -30 -4 -87
-73 -256 -19 -276 89 -25 133 123 226 284 178 32 -9 29 20 -4 51 -36 34 -123
36 -155 4 -20 -20 -24 -20 -61 -8 -50 16 -57 33 -27 66 57 61 181 82 264 44z
m290 -133 c32 -79 61 -147 65 -151 4 -4 33 60 65 143 l58 150 58 0 c33 0 59
-3 59 -6 0 -19 -285 -657 -295 -661 -7 -2 -33 -3 -58 -1 l-45 3 53 118 53 118
-85 192 c-46 106 -89 202 -94 215 -8 21 -7 22 50 22 l58 0 58 -142z"/>
<path d="M3988 2153 c-68 -42 -78 -152 -19 -205 59 -53 146 -43 184 21 22 37
22 114 1 147 -35 52 -113 69 -166 37z"/>
<path d="M5620 1399 l0 -121 93 4 c128 6 167 35 167 126 0 80 -51 112 -175
112 l-85 0 0 -121z"/>
<path d="M3266 1258 c-111 -83 -42 -273 94 -255 99 13 144 119 93 219 -29 58
-131 77 -187 36z"/>
<path d="M3802 1268 c-57 -28 -85 -147 -47 -204 23 -36 74 -64 115 -64 125 0
177 178 75 258 -31 24 -103 29 -143 10z"/>
<path d="M4316 1259 c-103 -81 -53 -259 72 -259 72 0 124 58 124 139 0 53 -21
102 -54 125 -33 23 -109 21 -142 -5z"/>
<path d="M5024 1276 c-39 -17 -74 -61 -74 -92 0 -13 4 -24 8 -24 11 0 176 70
185 79 11 11 -25 40 -59 46 -16 3 -43 -1 -60 -9z"/>
<path d="M6364 1116 c-49 -22 -60 -74 -22 -100 31 -22 84 -20 123 4 38 24 64
75 47 92 -18 18 -113 20 -148 4z"/>
</g>
</svg>
